<svg id="Layer" enable-background="new 0 0 64 64" height="512" viewBox="0 0 64 64" width="512" xmlns="http://www.w3.org/2000/svg"><path d="m54 32c0 2.53-.43 4.96-1.21 7.22v.01c.77 1.42 1.21 3.05 1.21 4.77 0 5.52-4.48 10-10 10-1.72 0-3.35-.44-4.77-1.21 0 0 0 0-.01 0-2.26.78-4.69 1.21-7.22 1.21-12.15 0-22-9.85-22-22 0-2.53.43-4.96 1.21-7.22 0-.01 0-.01 0-.01-.77-1.42-1.21-3.05-1.21-4.77 0-5.52 4.48-10 10-10 1.72 0 3.35.44 4.77 1.21h.01c2.26-.78 4.69-1.21 7.22-1.21 12.15 0 22 9.85 22 22z" fill="#4dd0e1"/><g fill="#012e52"><path d="m32 8c-2.405 0-4.78.355-7.071 1.059-1.545-.695-3.232-1.059-4.929-1.059-6.617 0-12 5.383-12 12 0 1.697.364 3.384 1.059 4.929-.704 2.291-1.059 4.666-1.059 7.071 0 13.234 10.766 24 24 24 2.405 0 4.78-.356 7.071-1.059 1.545.695 3.233 1.059 4.929 1.059 6.617 0 12-5.383 12-12 0-1.696-.364-3.383-1.059-4.928.704-2.291 1.059-4.666 1.059-7.072 0-13.234-10.767-24-24-24zm19.031 32.183c.634 1.169.969 2.489.969 3.817 0 4.411-3.589 8-8 8-1.329 0-2.648-.335-3.816-.968-.292-.159-.631-.242-.964-.242-.222 0-.442.037-.652.109-2.117.731-4.327 1.101-6.568 1.101-11.028 0-20-8.972-20-20 0-2.241.37-4.451 1.101-6.568.072-.21.109-.44.109-.662 0-.333-.083-.661-.242-.954-.633-1.167-.968-2.487-.968-3.816 0-4.411 3.589-8 8-8 1.329 0 2.649.335 3.816.968.489.266 1.092.314 1.616.132 2.117-.73 4.327-1.1 6.568-1.1 11.028 0 20 8.972 20 20 0 2.243-.37 4.452-1.101 6.567-.072.21-.109.431-.109.653v.01c0 .333.083.66.241.953z"/><path d="m32 24c2.168 0 4 1.374 4 3 0 1.104.896 2 2 2s2-.896 2-2c0-3.86-3.589-7-8-7s-8 3.14-8 7 3.589 7 8 7c2.168 0 4 1.374 4 3s-1.832 3-4 3-4-1.374-4-3c0-1.104-.896-2-2-2s-2 .896-2 2c0 3.86 3.589 7 8 7s8-3.14 8-7-3.589-7-8-7c-2.168 0-4-1.374-4-3s1.832-3 4-3z"/></g></svg>