<svg id="Layer" enable-background="new 0 0 64 64" height="512" viewBox="0 0 64 64" width="512" xmlns="http://www.w3.org/2000/svg"><g fill="#4dd0e1"><path d="m25.5 32.84 3.67-3.67c1.17-1.17 1.17-3.07 0-4.24l-3.3-3.31c-.47-.47-1.26-.36-1.58.23l-2.29 4.11c-.37.67-.33 1.49.1 2.11l2.04 2.94c.43.63.88 1.24 1.36 1.83zm5.66 5.66c.59.48 1.2.93 1.83 1.36l2.94 2.04c.62.43 1.44.47 2.11.1l4.11-2.29c.59-.32.7-1.11.23-1.58l-3.31-3.3c-1.17-1.17-3.07-1.17-4.24 0zm16.4-22.06c8.59 8.6 8.59 22.52 0 31.12-7.69 7.68-19.63 8.49-28.22 2.44l-7.94 3.92c-.83.35-1.67-.49-1.32-1.32l3.92-7.94c-6.05-8.59-5.24-20.53 2.44-28.22 8.6-8.59 22.52-8.59 31.12 0z"/><path d="m42.38 38.13c.47.47.36 1.26-.23 1.58l-4.11 2.29c-.67.37-1.49.33-2.11-.1l-2.94-2.04c-.63-.43-1.24-.88-1.83-1.36l3.67-3.67c1.17-1.17 3.07-1.17 4.24 0z"/><path d="m29.17 24.93c1.17 1.17 1.17 3.07 0 4.24l-3.67 3.67c-.48-.59-.93-1.2-1.36-1.83l-2.04-2.94c-.43-.62-.47-1.44-.1-2.11l2.29-4.11c.32-.59 1.11-.7 1.58-.23z"/></g><path d="m40.484 33.416c-1.949-1.949-5.119-1.949-7.068 0l-2.375 2.375c-1.001-.885-1.947-1.831-2.832-2.832l2.375-2.375c1.949-1.948 1.949-5.12.002-7.066l-3.302-3.312c-.666-.666-1.617-.981-2.549-.848-.944.137-1.747.697-2.192 1.518l-2.294 4.117c-.731 1.324-.65 2.979.208 4.218l2.031 2.928c.482.705.953 1.338 1.437 1.934.002.002.003.005.005.008.005.006.01.012.015.018.001.002.002.003.004.005.001.001.001.001.002.002 1.744 2.202 3.743 4.201 5.945 5.945.001.001.001.001.002.002.002.001.003.002.005.004.006.005.012.01.018.015.001.001.003.001.005.003.597.485 1.23.957 1.925 1.431l2.941 2.041c.673.467 1.471.704 2.272.704.67 0 1.344-.166 1.95-.501l4.091-2.279c.84-.456 1.4-1.259 1.537-2.203.135-.931-.182-1.884-.85-2.551zm-15.089-9.44 2.361 2.368c.389.39.389 1.022 0 1.412l-2.031 2.03-1.978-2.853zm11.675 16.282-2.856-1.982 2.03-2.031c.39-.389 1.022-.388 1.414.002l2.367 2.36z" fill="#012e52"/><path d="m48.973 15.025c-9.358-9.351-24.587-9.349-33.947.002-7.986 7.995-9.305 20.34-3.33 29.782l-3.408 6.904c-.019.036-.035.072-.05.109-.477 1.131-.223 2.424.646 3.293s2.161 1.126 3.293.646c.037-.015.073-.031.109-.05l6.904-3.408c3.938 2.492 8.381 3.715 12.803 3.715 6.18 0 12.319-2.39 16.981-7.047 9.35-9.357 9.35-24.585-.001-33.946zm-28.482 33.34c-.343-.242-.746-.365-1.151-.365-.302 0-.605.068-.886.207l-5.256 2.595 2.595-5.256c.324-.657.264-1.438-.158-2.037-5.607-7.963-4.674-18.752 2.219-25.653 7.801-7.792 20.492-7.792 28.291-.002 7.792 7.801 7.792 20.492.002 28.291-6.905 6.894-17.694 7.828-25.656 2.22z" fill="#012e52"/></svg>