<?xml version="1.0" encoding="iso-8859-1"?>
<!-- Generator: Adobe Illustrator 19.0.0, SVG Export Plug-In . SVG Version: 6.00 Build 0)  -->
<svg version="1.1" id="Layer_1" xmlns="http://www.w3.org/2000/svg" xmlns:xlink="http://www.w3.org/1999/xlink" x="0px" y="0px"
	 viewBox="0 0 512 512" style="enable-background:new 0 0 512 512;" xml:space="preserve">
<g>
	<g>
		<path d="M437.019,74.981C388.667,26.628,324.379,0,256,0S123.333,26.628,74.982,74.981C26.628,123.333,0,187.621,0,256
			s26.628,132.667,74.982,181.019C123.333,485.372,187.621,512,256,512s132.667-26.628,181.019-74.981S512,324.379,512,256
			S485.372,123.333,437.019,74.981z M256,495.832C123.756,495.832,16.168,388.244,16.168,256S123.756,16.168,256,16.168
			S495.832,123.756,495.832,256S388.244,495.832,256,495.832z"/>
	</g>
</g>
<g>
	<g>
		<path d="M407.428,304.547c3.115-9.717,5.259-19.688,6.443-29.818c0.558-4.782-3.215-8.972-8.03-8.972
			c-4.078,0-7.531,3.039-8.007,7.088c-1.247,10.613-3.677,21.025-7.271,31.111c-1.053,2.953-0.33,6.245,1.887,8.463l2.651,2.651
			c22.065,22.064,22.065,57.966-0.001,80.03c-10.713,10.714-24.967,16.603-40.124,16.574c-15.263-0.029-29.815-6.485-40.606-17.278
			l-1.948-1.948c-1.544-1.542-3.61-2.368-5.718-2.368c-0.911,0-1.828,0.154-2.715,0.47c-16.016,5.712-32.854,8.493-50.009,8.256
			c-78.265-1.082-141.516-65.884-140.792-144.153c0.148-15.983,2.923-31.66,8.257-46.619c1.052-2.95,0.324-6.24-1.89-8.454
			l-2.651-2.651c-22.065-22.064-22.065-57.966,0.001-80.03c10.713-10.714,24.967-16.603,40.124-16.574
			c15.263,0.029,29.815,6.485,40.606,17.278l1.948,1.948c2.21,2.209,5.495,2.947,8.432,1.898c15.386-5.488,31.532-8.27,47.988-8.27
			c71.862,0,131.489,53.352,141.373,122.524c0.564,3.944,3.995,6.842,7.979,6.842h0.016c4.898,0,8.699-4.332,8.004-9.182
			C402.352,156.381,335.983,97.011,256,97.011c-16.586,0-32.892,2.542-48.548,7.561c-13.633-13.174-31.528-20.413-50.536-20.413
			c-19.434,0-37.705,7.568-51.448,21.311c-28.066,28.067-28.366,73.546-0.896,101.983c-5.01,15.626-7.552,31.899-7.561,48.452
			c-0.052,87.722,71.267,159.084,158.991,159.084c16.584,0,32.891-2.542,48.547-7.561c13.633,13.174,31.528,20.413,50.536,20.413
			c19.434,0,37.705-7.568,51.448-21.311C434.599,378.463,434.898,332.984,407.428,304.547z"/>
	</g>
</g>
<g>
	<g>
		<path d="M311.539,239.782c14.096-0.854,25.304-12.592,25.304-26.898c0-26.746-21.759-48.505-48.505-48.505h-10.144
			c-4.465,0-8.084,3.62-8.084,8.084c0,4.465,3.62,8.084,8.084,8.084h10.144c17.59,0,31.944,14.117,32.329,31.617
			c0.132,5.992-4.372,11.267-10.361,11.491c-6.149,0.23-11.222-4.724-11.189-10.832c0.033-5.975-5.077-10.719-11.052-10.719h-53.093
			c-11.674,0-21.63,9.06-22.071,20.726c-0.465,12.264,9.379,22.39,21.542,22.39h42.306c23.544,0,43.356,18.539,43.912,42.077
			c0.573,24.247-18.985,44.155-43.104,44.155h-53.895c-17.59,0-31.944-14.117-32.329-31.617
			c-0.131-5.992,4.372-11.267,10.361-11.491c6.149-0.23,11.223,4.724,11.189,10.832c-0.033,5.975,5.077,10.719,11.052,10.719h53.093
			c11.674,0,21.63-9.06,22.072-20.726c0.465-12.264-9.379-22.39-21.542-22.39h-42.306c-23.544,0-43.356-18.539-43.912-42.077
			c-0.573-24.247,18.984-44.155,43.103-44.155h4.372c4.465,0,8.084-3.62,8.084-8.084c0-4.465-3.62-8.084-8.084-8.084h-3.39
			c-32.661,0-59.924,26-60.263,58.659c-0.21,20.314,9.852,38.336,25.3,49.18c-14.096,0.854-25.304,12.592-25.304,26.898
			c0,26.746,21.759,48.505,48.505,48.505h52.913c32.661,0,59.924-26,60.263-58.659C337.049,268.649,326.987,250.627,311.539,239.782
			z M277.558,229.053h-43.116c-2.972,0-5.39-2.418-5.39-5.389c0-2.972,2.418-5.389,5.39-5.389h49.046
			c0.914,4.483,2.944,8.565,5.787,11.942C285.486,229.452,281.569,229.053,277.558,229.053z M234.442,282.947h43.116
			c2.972,0,5.389,2.418,5.389,5.389s-2.418,5.389-5.389,5.389h-49.046c-0.914-4.483-2.944-8.565-5.787-11.942
			C226.514,282.547,230.431,282.947,234.442,282.947z"/>
	</g>
</g>
<g>
</g>
<g>
</g>
<g>
</g>
<g>
</g>
<g>
</g>
<g>
</g>
<g>
</g>
<g>
</g>
<g>
</g>
<g>
</g>
<g>
</g>
<g>
</g>
<g>
</g>
<g>
</g>
<g>
</g>
</svg>
